<svg width="36" height="31" viewBox="0 0 36 31" fill="none" xmlns="http://www.w3.org/2000/svg">
<rect y="0.5" width="36" height="30" rx="3" fill="white"/>
<path d="M26.8889 11.6111C26.8889 11.912 26.7789 12.1725 26.559 12.3924L18.7813 20.1701C18.5613 20.39 18.3009 20.5 18 20.5C17.6991 20.5 17.4387 20.39 17.2188 20.1701L9.44098 12.3924C9.22107 12.1725 9.11111 11.912 9.11111 11.6111C9.11111 11.3102 9.22107 11.0498 9.44098 10.8299C9.66088 10.61 9.9213 10.5 10.2222 10.5L25.7778 10.5C26.0787 10.5 26.3391 10.61 26.559 10.8299C26.7789 11.0498 26.8889 11.3102 26.8889 11.6111Z" fill="black"/>
</svg>
