<svg width="58" height="69" viewBox="0 0 58 69" fill="none" xmlns="http://www.w3.org/2000/svg">
<rect width="69" height="57" rx="3" transform="matrix(0 -1 -1 0 57.5 69)" fill="black"/>
<path d="M36 18.5C35.4583 18.5 34.9896 18.6979 34.5938 19.0938L20.5938 33.0938C20.1979 33.4896 20 33.9583 20 34.5C20 35.0417 20.1979 35.5104 20.5938 35.9062L34.5938 49.9062C34.9896 50.3021 35.4583 50.5 36 50.5C36.5417 50.5 37.0104 50.3021 37.4062 49.9062C37.8021 49.5104 38 49.0417 38 48.5V20.5C38 19.9583 37.8021 19.4896 37.4062 19.0938C37.0104 18.6979 36.5417 18.5 36 18.5Z" fill="#FFCC00"/>
</svg>
