<svg width="18" height="25" viewBox="0 0 18 25" fill="none" xmlns="http://www.w3.org/2000/svg">
<rect width="25" height="18" rx="1" transform="matrix(0 -1 -1 0 18 25)" fill="black"/>
<path d="M12.1111 4.5C11.8704 4.5 11.662 4.59896 11.4861 4.79688L5.26389 11.7969C5.08796 11.9948 5 12.2292 5 12.5C5 12.7708 5.08796 13.0052 5.26389 13.2031L11.4861 20.2031C11.662 20.401 11.8704 20.5 12.1111 20.5C12.3519 20.5 12.5602 20.401 12.7361 20.2031C12.912 20.0052 13 19.7708 13 19.5V5.5C13 5.22917 12.912 4.99479 12.7361 4.79688C12.5602 4.59896 12.3519 4.5 12.1111 4.5Z" fill="#FFCC00"/>
</svg>
