<svg width="64" height="27" viewBox="0 0 64 27" fill="none" xmlns="http://www.w3.org/2000/svg">
<g clip-path="url(#clip0_1358_139)">
<path d="M38.9726 18.0971H40.6667V11.6751H38.9726V18.0971ZM38.9006 10.0149C38.9006 9.44436 39.2079 9.15918 39.8226 9.15918C40.437 9.15918 40.7445 9.44436 40.7445 10.0149C40.7445 10.2869 40.6676 10.4985 40.5141 10.6498C40.3603 10.8011 40.1299 10.8766 39.8226 10.8766C39.2079 10.8766 38.9006 10.5893 38.9006 10.0149Z" fill="#0C344B"/>
<path fill-rule="evenodd" clip-rule="evenodd" d="M32.1186 14.392C32.6649 13.9133 32.9379 13.2223 32.9379 12.3185C32.9379 11.4491 32.6816 10.7952 32.1688 10.3567C31.6559 9.91856 30.9072 9.6991 29.9221 9.6991H27.3284V18.0971H29.0501V15.11H29.7889C30.796 15.11 31.5726 14.8709 32.1186 14.392ZM29.6167 13.6511H29.0501V11.1583H29.8332C30.3035 11.1583 30.6487 11.2577 30.8691 11.4568C31.0893 11.656 31.1996 11.9643 31.1996 12.3817C31.1996 12.7951 31.0682 13.1101 30.8052 13.3265C30.5422 13.5429 30.1462 13.6511 29.6167 13.6511Z" fill="#0C344B"/>
<path d="M38.074 11.6062C37.9222 11.5717 37.7316 11.5544 37.502 11.5544C37.1168 11.5544 36.7604 11.6646 36.4329 11.8847C36.1068 12.1031 35.8385 12.4022 35.6524 12.755H35.5692L35.3192 11.6751H34.0362V18.0972H35.7302V14.8287C35.7302 14.3117 35.8811 13.9095 36.1827 13.6223C36.4847 13.3351 36.9058 13.1915 37.4465 13.1915C37.6428 13.1915 37.8093 13.2108 37.9464 13.2489L38.074 11.6062ZM45.9667 17.6952C46.4093 17.3503 46.6306 16.8489 46.6306 16.1901C46.6306 15.8723 46.577 15.5985 46.4695 15.3687C46.3623 15.1389 46.1954 14.936 45.9697 14.7598C45.7439 14.5837 45.3884 14.3943 44.9032 14.1912C44.3589 13.9653 44.0063 13.7947 43.8453 13.6799C43.6843 13.5651 43.6035 13.4292 43.6035 13.272C43.6035 12.9925 43.8536 12.8528 44.3535 12.8528C44.6347 12.8528 44.9106 12.8968 45.1809 12.9846C45.4511 13.073 45.742 13.1858 46.053 13.3237L46.5639 12.0601C45.8567 11.7232 45.1291 11.5546 44.3811 11.5546C43.5961 11.5546 42.9901 11.7106 42.5625 12.0228C42.1344 12.3349 41.9206 12.7761 41.9206 13.3467C41.9206 13.6799 41.9716 13.9604 42.0736 14.1882C42.1752 14.4162 42.3382 14.6182 42.5625 14.7943C42.7861 14.9705 43.1373 15.162 43.6147 15.3687C43.9479 15.5143 44.2146 15.6415 44.4146 15.7506C44.6145 15.8599 44.7553 15.9575 44.8369 16.0437C44.9183 16.1299 44.9589 16.2419 44.9589 16.3798C44.9589 16.7473 44.6516 16.9311 44.0367 16.9311C43.7369 16.9311 43.3897 16.8794 42.9956 16.7761C42.601 16.6727 42.2466 16.5445 41.9318 16.3912V17.8388C42.2194 17.9644 42.5192 18.0577 42.8261 18.1172C43.1446 18.1805 43.5296 18.2122 43.9814 18.2122C44.8624 18.2122 45.5243 18.04 45.9667 17.6952ZM53.3414 18.0972H51.6474V14.3462C51.6474 13.8829 51.5723 13.5353 51.4227 13.3037C51.2724 13.072 51.0365 12.956 50.7143 12.956C50.2813 12.956 49.9665 13.1207 49.7702 13.4501C49.5739 13.7795 49.4758 14.3213 49.4758 15.0758V18.0972H47.7818V11.6751H49.0759L49.3036 12.4966H49.3981C49.5646 12.2017 49.8055 11.9709 50.12 11.8043C50.4348 11.6378 50.7959 11.5544 51.2032 11.5544C52.1326 11.5544 52.7619 11.8686 53.0916 12.4966H53.2414C53.4081 12.1978 53.6535 11.9662 53.9775 11.8015C54.3014 11.6368 54.667 11.5544 55.0743 11.5544C55.7778 11.5544 56.3102 11.7413 56.6711 12.1145C57.0322 12.4879 57.2126 13.0862 57.2126 13.9095V18.0972H55.513V14.3462C55.513 13.8829 55.4379 13.5353 55.2883 13.3037C55.1381 13.072 54.9021 12.956 54.5799 12.956C54.1653 12.956 53.8553 13.1093 53.6495 13.4156C53.4442 13.7221 53.3414 14.2083 53.3414 14.8746V18.0972Z" fill="#0C344B"/>
<path fill-rule="evenodd" clip-rule="evenodd" d="M62.3143 17.224L62.642 18.0972H63.825V13.8176C63.825 13.0518 63.6028 12.4812 63.1586 12.106C62.7142 11.7307 62.0755 11.5429 61.2424 11.5429C60.3724 11.5429 59.5799 11.7364 58.8652 12.1232L59.4261 13.3065C60.0963 12.9962 60.6795 12.8412 61.1757 12.8412C61.8199 12.8412 62.1421 13.1668 62.1421 13.8176V14.0992L61.0647 14.1337C60.1353 14.1681 59.4403 14.3472 58.979 14.6707C58.5181 14.9945 58.2877 15.4971 58.2877 16.1786C58.2877 16.8297 58.4589 17.3313 58.8013 17.6836C59.1439 18.0359 59.613 18.212 60.2094 18.212C60.6944 18.212 61.0878 18.1402 61.3895 17.9966C61.6913 17.853 61.9847 17.5956 62.2698 17.224H62.3143ZM61.4867 15.1446L62.1421 15.1216V15.65C62.1421 16.037 62.0245 16.3471 61.7893 16.5806C61.5544 16.8143 61.2404 16.9311 60.848 16.9311C60.3 16.9311 60.0261 16.6841 60.0261 16.1902C60.0261 15.8453 60.1463 15.589 60.3871 15.4204C60.6277 15.2521 60.9943 15.16 61.4867 15.1446ZM18.6807 21.2976L7.40815 24.7458C7.06378 24.8512 6.73371 24.5431 6.80608 24.1839L10.8331 4.23752C10.9084 3.86472 11.407 3.80549 11.5642 4.15091L19.0206 20.5267C19.1612 20.8356 19.0008 21.1999 18.6807 21.2976ZM20.6138 20.4843L11.9804 1.52323V1.52283C11.8731 1.28934 11.7068 1.09023 11.4989 0.946607C11.2911 0.802984 11.0496 0.720203 10.8 0.707042C10.2746 0.6754 9.80391 0.937458 9.53837 1.38348L0.175008 17.0684C0.0327604 17.3053 -0.041241 17.5793 -0.0383233 17.8582C-0.0354056 18.1371 0.0443103 18.4093 0.191481 18.643L4.76843 25.9757C5.04123 26.4135 5.51387 26.6668 6.00514 26.6668C6.14438 26.6668 6.28441 26.6465 6.42208 26.6043L19.7078 22.5404C19.9078 22.4798 20.0928 22.3755 20.2505 22.2345C20.4082 22.0936 20.5347 21.9193 20.6217 21.7234C20.7075 21.5286 20.7512 21.3169 20.7499 21.1028C20.7485 20.8888 20.7021 20.6779 20.6138 20.4843Z" fill="#0C344B"/>
</g>
<defs>
<clipPath id="clip0_1358_139">
<rect width="64" height="26" fill="white" transform="translate(0 0.666748)"/>
</clipPath>
</defs>
</svg>
