<?xml version="1.0" encoding="UTF-8" standalone="no"?>
<svg
   width="60"
   height="60"
   viewBox="0 0 60 60"
   version="1.1"
   id="svg8"
   sodipodi:docname="thumb.svg"
   inkscape:version="1.1 (c68e22c387, 2021-05-23)"
   xmlns:inkscape="http://www.inkscape.org/namespaces/inkscape"
   xmlns:sodipodi="http://sodipodi.sourceforge.net/DTD/sodipodi-0.dtd"
   xmlns="http://www.w3.org/2000/svg"
   xmlns:svg="http://www.w3.org/2000/svg">
  <defs
     id="defs12" />
  <sodipodi:namedview
     id="namedview10"
     pagecolor="#ffffff"
     bordercolor="#666666"
     borderopacity="1.0"
     inkscape:pageshadow="2"
     inkscape:pageopacity="0.0"
     inkscape:pagecheckerboard="0"
     showgrid="false"
     inkscape:zoom="6.3666665"
     inkscape:cx="29.450263"
     inkscape:cy="30.628273"
     inkscape:window-width="1920"
     inkscape:window-height="1017"
     inkscape:window-x="-8"
     inkscape:window-y="-8"
     inkscape:window-maximized="1"
     inkscape:current-layer="svg8" />
  <path
     style="color:#000000;fill:#323b3c;stroke-width:4.92688;stroke-linecap:round;stroke-linejoin:round;-inkscape-stroke:none;fill-opacity:1;opacity:0.80815348"
     d="m 66.742348,21.213203 a 30,30 0 0 1 -30,30 30,30 0 0 1 -30.0000003,-30 30,30 0 0 1 30.0000003,-29.9999996 30,30 0 0 1 30,29.9999996 z"
     clip-path="none"
     id="path1743"
     transform="rotate(15)" />
  <path
     style="color:#000000;fill:#ffffff;stroke-linecap:round;stroke-linejoin:round;stroke-miterlimit:2;-inkscape-stroke:none;fill-opacity:1"
     d="m 21,17 a 3,3 0 0 0 -2.121094,0.878906 l -9.9999997,10 a 3.0003,3.0003 0 0 0 0,4.242188 l 9.9999997,10 a 3,3 0 0 0 4.242188,0 3,3 0 0 0 0,-4.242188 L 15.242188,30 23.121094,22.121094 a 3,3 0 0 0 0,-4.242188 A 3,3 0 0 0 21,17 Z"
     id="path5535" />
  <path
     style="color:#000000;fill:#ffffff;stroke-linecap:round;stroke-linejoin:round;stroke-miterlimit:2;-inkscape-stroke:none;fill-opacity:1"
     d="m 39,17 a 3,3 0 0 0 -2.121094,0.878906 3,3 0 0 0 0,4.242188 L 44.757812,30 36.878906,37.878906 a 3,3 0 0 0 0,4.242188 3,3 0 0 0 4.242188,0 l 10,-10 a 3.0003,3.0003 0 0 0 0,-4.242188 l -10,-10 A 3,3 0 0 0 39,17 Z"
     clip-path="none"
     id="path5537" />
</svg>
